<?xml version="1.0" encoding="UTF-8" standalone="no"?>
<!-- Created with Inkscape (http://www.inkscape.org/) -->

<svg
   width="150.28334mm"
   height="141.55208mm"
   viewBox="0 0 150.28334 141.55208"
   version="1.1"
   id="svg1"
   xml:space="preserve"
   xmlns="http://www.w3.org/2000/svg"
   xmlns:svg="http://www.w3.org/2000/svg"><defs
     id="defs1" /><g
     id="layer1"
     transform="translate(-20.332203,-138.69257)"><path
       style="fill:#d38600"
       d="m 137.15549,270.97968 c -0.80045,-0.29585 -4.05973,-3.39739 -13.97393,-13.29766 -7.1115,-7.1015 -13.11788,-13.26622 -13.3475,-13.69938 -0.50008,-0.94334 -0.548,-3.22776 -0.0858,-4.09135 0.18242,-0.34086 1.14038,-1.68493 2.12881,-2.98684 3.35063,-4.41327 5.88516,-10.08948 7.17959,-16.07904 0.85352,-3.94942 0.85987,-11.57354 0.0129,-15.50566 -1.16912,-5.42776 -3.09178,-10.02775 -6.06603,-14.51311 -2.16224,-3.2608 -6.7615,-7.96661 -9.7111,-9.93607 -12.794762,-8.54312 -29.91775,-7.14627 -40.889034,3.33563 -4.979856,4.75773 -7.7468,10.30928 -8.517858,17.09011 -0.686376,6.03611 1.120558,13.27347 4.631273,18.54975 2.887846,4.34017 7.117919,7.57699 12.081606,9.24476 2.431618,0.81702 2.660143,0.84467 7.011459,0.84848 4.419467,0.004 4.542879,-0.0115 7.075891,-0.88365 2.88612,-0.9937 6.026292,-2.81032 8.13489,-4.70613 2.275365,-2.04575 2.894063,-4.11714 1.882397,-6.30224 -0.90462,-1.95388 -2.524043,-3.04271 -4.52547,-3.04271 -1.413096,0 -2.185928,0.34099 -3.85576,1.70122 -1.863814,1.51826 -3.774421,2.43893 -6.070731,2.92534 -2.299753,0.48714 -2.977809,0.4882 -5.24334,0.008 -2.57428,-0.54543 -4.455772,-1.48805 -6.129149,-3.07066 -7.197754,-6.80733 -7.027707,-18.36742 0.369971,-25.15127 1.966946,-1.80374 5.874475,-3.85032 8.758176,-4.58711 2.341146,-0.59818 8.343684,-0.82151 11.129917,-0.41411 9.713608,1.42032 17.592412,9.53256 19.842772,20.43069 0.79292,3.84001 0.61957,9.75481 -0.39418,13.44939 -1.45974,5.31996 -4.83039,10.77872 -9.314783,15.08527 -4.916666,4.72168 -11.474049,7.97375 -19.014768,9.43021 -3.239063,0.6256 -9.954324,0.62066 -13.229167,-0.01 -9.877581,-1.90143 -17.850144,-6.74934 -24.201255,-14.71616 -4.81323,-6.0377 -8.282576,-13.4227 -9.772261,-20.80164 -1.528395,-7.5707 -1.350584,-15.3597 0.512198,-22.43669 5.087362,-19.32765 20.350992,-33.04312 41.927985,-37.67532 6.204099,-1.33191 7.957363,-1.50513 15.081251,-1.49001 7.096697,0.0151 10.24233,0.37572 15.9816,1.8323 17.81807,4.52211 32.61545,15.75889 41.81821,31.75574 6.51301,11.32134 10.07819,23.98028 10.50668,37.30625 0.54473,16.94106 -4.15162,33.18945 -13.67473,47.31163 -1.6413,2.43394 -2.88515,3.99068 -3.57188,4.47037 -1.3014,0.90904 -3.04554,1.15096 -4.47883,0.62123 z"
       id="path41" /></g></svg>
