<?xml version="1.0" encoding="UTF-8" standalone="no"?>
<!-- Created with Inkscape (http://www.inkscape.org/) -->

<svg
   width="419.99142mm"
   height="51.999996mm"
   viewBox="0 0 419.99143 51.999996"
   version="1.1"
   id="svg1"
   xml:space="preserve"
   xmlns="http://www.w3.org/2000/svg"
   xmlns:svg="http://www.w3.org/2000/svg"><defs
     id="defs1" /><g
     id="layer1"
     transform="translate(-134.6655,-100.9561)"><g
       id="g3"
       style="fill:#c0c0c0;fill-opacity:1"><g
         id="g1"
         style="fill:#c0c0c0;fill-opacity:1"><g
           id="g2"><path
             style="font-size:43.7444px;font-family:'NCL Neovibes';-inkscape-font-specification:'NCL Neovibes';stroke-width:0.264583"
             d="m 231.59343,136.55723 c 2.84083,-1.06798 5.04086,-2.56315 6.57875,-4.50687 0.0641,-0.0854 0.0854,-0.17088 0.0854,-0.23496 0,-0.10679 -0.0427,-0.21359 -0.14952,-0.29903 l -0.0854,-0.0427 -9.33413,-3.67385 c -0.0427,-0.0214 -0.1068,-0.0214 -0.14952,-0.0214 -0.12815,0 -0.21359,0.0641 -0.29903,0.19224 -0.49127,0.70487 -1.26021,1.26022 -2.30683,1.68741 -1.1107,0.44855 -2.3282,0.6835 -3.67385,0.6835 -1.7942,0 -3.24665,-0.38447 -4.37871,-1.17477 -1.1107,-0.74759 -1.66605,-1.68741 -1.66605,-2.81947 0,-1.11069 0.55535,-2.02916 1.66605,-2.77674 1.13206,-0.74759 2.62723,-1.13206 4.44279,-1.13206 1.28157,0 2.43499,0.2136 3.46025,0.61943 1.0039,0.40583 1.87964,1.0039 2.60587,1.81556 0.0854,0.0854 0.17087,0.1068 0.25631,0.1068 0.0427,0 0.1068,0 0.14952,-0.0214 l 9.27005,-3.18257 c 0.17088,-0.0641 0.25632,-0.19224 0.25632,-0.36312 0,-0.0214 -0.0214,-0.0641 -0.0214,-0.1068 -0.0214,-0.0427 -0.0427,-0.0854 -0.0641,-0.10679 -1.51653,-2.17868 -3.63113,-3.82337 -6.38651,-4.93406 -2.92626,-1.15342 -6.21564,-1.73013 -9.8254,-1.73013 -2.66995,0 -5.10494,0.27768 -7.26226,0.81166 -2.17868,0.53399 -4.10104,1.36702 -5.76708,2.47771 h -0.0214 c -1.66605,1.08934 -2.92626,2.34956 -3.75929,3.75929 -0.83302,1.43109 -1.26021,3.0117 -1.26021,4.76318 0,1.73013 0.42719,3.3321 1.26021,4.76319 0.83303,1.43109 2.09324,2.6913 3.78065,3.802 l 0.0214,0.0214 c 1.66604,1.06798 3.56704,1.87964 5.72436,2.41363 2.15732,0.53399 4.54959,0.81167 7.15546,0.81167 3.63112,0 6.85642,-0.53399 9.69724,-1.60197 z m 21.85084,-10.44483 c 0,-1.13206 0.49127,-2.05052 1.47381,-2.73403 1.0039,-0.74758 2.34956,-1.11069 4.03696,-1.11069 1.53789,0 2.73403,0.32039 3.56705,0.98254 0.81166,0.61942 1.2175,1.49517 1.2175,2.62722 v 11.44873 c 0,0.19224 0.12815,0.3204 0.36311,0.36312 h 11.70504 c 0.2136,0 0.34176,-0.12816 0.38448,-0.36312 v -13.45653 c 0,-1.49517 -0.34176,-2.84082 -1.0039,-4.0156 -0.64079,-1.17477 -1.62333,-2.15731 -2.92627,-2.94762 l -0.0213,-0.0214 c -1.23886,-0.7903 -2.62723,-1.38837 -4.1224,-1.7942 -1.51653,-0.40583 -3.18258,-0.59807 -4.95542,-0.59807 -2.37091,0 -4.48551,0.34176 -6.30108,1.0039 -1.55924,0.55535 -2.77674,1.23886 -3.65248,2.05052 v -10.27395 c 0,-0.2136 -0.12816,-0.34176 -0.38447,-0.38448 h -11.38466 c -0.21359,0 -0.34175,0.12816 -0.38447,0.38448 v 30.05291 c 0,0.19224 0.12816,0.3204 0.38447,0.36312 h 11.61961 c 0.2136,0 0.34175,-0.12816 0.38447,-0.36312 z m 47.82408,-4.14376 c 0.72623,0.3204 1.30293,0.76895 1.73013,1.32429 h -10.87203 c 0.44855,-0.55534 1.04662,-1.00389 1.79421,-1.32429 0.98254,-0.42719 2.22139,-0.64079 3.71656,-0.64079 1.47381,0 2.66995,0.2136 3.63113,0.64079 z m 12.62351,-0.8971 c -0.83303,-1.36701 -2.09324,-2.54179 -3.75929,-3.54569 -1.66604,-1.0039 -3.54569,-1.75148 -5.63892,-2.24275 -2.07188,-0.49127 -4.35736,-0.74759 -6.85643,-0.74759 -2.66994,0 -5.08357,0.27768 -7.28361,0.83302 -2.20004,0.55535 -4.16512,1.38838 -5.85252,2.47771 -1.68741,1.13206 -2.96898,2.39228 -3.82337,3.82337 -0.85438,1.43109 -1.28157,2.99034 -1.28157,4.72046 0,3.35346 1.66605,6.15156 4.97678,8.43703 1.64469,1.1107 3.60977,1.94372 5.9166,2.49907 2.28547,0.55535 4.9127,0.83303 7.88168,0.83303 2.79811,0 5.42533,-0.25632 7.88168,-0.74759 h 0.0214 c 2.45635,-0.49127 4.76319,-1.26021 6.9205,-2.26411 0.14952,-0.0854 0.2136,-0.19224 0.2136,-0.34176 0,-0.0641 0,-0.10679 -0.0214,-0.17087 -0.0214,-0.0214 -0.0427,-0.0641 -0.0641,-0.0854 l -4.50687,-5.10494 c -0.0854,-0.0854 -0.17087,-0.12816 -0.27767,-0.12816 -0.0427,0 -0.1068,0.0214 -0.17088,0.0427 -1.43109,0.61943 -2.9049,1.06798 -4.46415,1.38837 -1.55925,0.29904 -3.20393,0.44856 -4.93406,0.44856 -1.73013,0 -3.18258,-0.2136 -4.33599,-0.64079 -0.83303,-0.32039 -1.53789,-0.79031 -2.07188,-1.36701 h 22.08579 c 0.19224,0 0.29904,-0.1068 0.36312,-0.29904 0.12815,-0.55535 0.21359,-1.08934 0.27767,-1.60197 0.0641,-0.53398 0.0854,-1.02525 0.0854,-1.49517 0,-1.73012 -0.42719,-3.31073 -1.28157,-4.72046 z m 16.72454,7.32633 c 0,-1.92236 0.53399,-3.35345 1.60196,-4.29327 1.08934,-0.96118 2.71267,-1.43109 4.91271,-1.43109 0.70486,0 1.43109,0.0427 2.17867,0.12815 0.76895,0.1068 1.53789,0.23496 2.30683,0.40584 h 0.0854 c 0.17088,0 0.29904,-0.0854 0.36312,-0.27768 l 0.96118,-7.43313 c 0,-0.19223 -0.0854,-0.34175 -0.27768,-0.40583 -0.70486,-0.19224 -1.40973,-0.34175 -2.1146,-0.44855 -0.74758,-0.1068 -1.47381,-0.14952 -2.20003,-0.14952 -1.85828,0 -3.52433,0.27768 -4.99814,0.81167 -1.19614,0.44855 -2.28547,1.08933 -3.24666,1.901 v -1.75149 c 0,-0.21359 -0.12815,-0.34175 -0.36311,-0.38447 h -11.21377 c -0.2136,0 -0.34176,0.12816 -0.38447,0.38447 v 21.8722 c 0,0.19224 0.12815,0.3204 0.38447,0.36312 h 11.6196 c 0.2136,0 0.34176,-0.12816 0.38448,-0.36312 z m 15.742,-21.50909 c -0.2136,0 -0.34176,0.12816 -0.38448,0.38448 v 30.05291 c 0,0.19224 0.12816,0.3204 0.38448,0.36312 h 11.6196 c 0.2136,0 0.34176,-0.12816 0.38447,-0.36312 v -30.05291 c 0,-0.2136 -0.12815,-0.34176 -0.38447,-0.38448 z m 28.25872,8.37296 c -0.0854,-0.1068 -0.19224,-0.17088 -0.32039,-0.19224 h -13.41381 c -0.2136,0 -0.34176,0.12816 -0.38448,0.38447 0,0.0854 0.0214,0.17088 0.0854,0.23496 l 14.14004,21.16733 c -0.70487,0.83303 -1.49517,1.45245 -2.41363,1.87964 -0.98254,0.44856 -2.09324,0.68351 -3.31074,0.68351 -0.6835,0 -1.36701,-0.0641 -2.07187,-0.19224 -0.72623,-0.12815 -1.45246,-0.32039 -2.20004,-0.5767 l -0.1068,-0.0214 c -0.17087,0 -0.27767,0.0854 -0.36311,0.25631 l -2.37091,6.27971 c -0.0214,0.0427 -0.0214,0.1068 -0.0214,0.14952 0,0.14952 0.0854,0.25632 0.23495,0.34176 1.08934,0.44855 2.28548,0.7903 3.54569,1.02525 1.30294,0.23496 2.71267,0.34176 4.18648,0.34176 4.22919,0 7.68944,-0.87574 10.40211,-2.60587 2.75538,-1.70877 5.04086,-4.18648 6.89914,-7.45449 l 12.60215,-21.31685 c 0.0427,-0.0854 0.0427,-0.14952 0.0427,-0.2136 0,-0.10679 -0.0427,-0.21359 -0.17087,-0.29903 -0.0641,-0.0427 -0.12816,-0.0641 -0.19224,-0.0641 h -12.60214 c -0.14952,0 -0.27768,0.0854 -0.34176,0.23496 l -5.59621,10.95746 z m 38.06275,13.88372 c -1.15342,-0.76895 -1.73013,-1.73013 -1.73013,-2.86219 0,-1.11069 0.57671,-2.02915 1.70877,-2.77674 1.17477,-0.76894 2.6913,-1.15342 4.52823,-1.15342 1.81556,0 3.31073,0.38448 4.50687,1.17478 1.13205,0.72623 1.70876,1.66605 1.70876,2.75538 0,1.13206 -0.57671,2.09324 -1.73012,2.86219 -1.17478,0.7903 -2.66995,1.19613 -4.48551,1.19613 -1.81557,0 -3.31074,-0.40583 -4.50687,-1.19613 z m 7.8176,-14.09732 h -0.0214 c -1.51653,-0.34175 -3.1185,-0.51263 -4.84862,-0.51263 -2.43499,0 -4.67775,0.25632 -6.72827,0.79031 -2.05052,0.53398 -3.88744,1.32429 -5.53213,2.37091 -1.62332,1.06798 -2.84082,2.30683 -3.67384,3.73792 -0.83303,1.40973 -1.23886,3.0117 -1.23886,4.78455 0,1.6874 0.38447,3.22529 1.15342,4.61366 0.76894,1.38838 1.92236,2.60587 3.46025,3.69521 1.51653,1.04662 3.26801,1.83692 5.29717,2.37091 2.02916,0.53399 4.29328,0.79031 6.79235,0.79031 1.77284,0 3.41753,-0.14952 4.89134,-0.44856 1.21749,-0.25631 2.30683,-0.61942 3.28937,-1.08933 -0.19223,0.98254 -0.87574,1.7942 -2.05052,2.43499 -1.34565,0.76894 -3.35345,1.15341 -6.00204,1.15341 -1.7942,0 -3.63112,-0.21359 -5.48941,-0.61942 -1.85828,-0.40584 -3.75928,-1.02526 -5.66028,-1.85829 -0.0641,-0.0214 -0.1068,-0.0427 -0.17088,-0.0427 -0.1068,0 -0.19223,0.0641 -0.27767,0.14952 l -4.10104,5.66029 c -0.0427,0.0854 -0.0641,0.14951 -0.0641,0.23495 0,0.1068 0.0427,0.2136 0.14952,0.29904 l 0.0854,0.0427 c 2.30683,1.13205 4.78454,1.96508 7.45449,2.52043 2.71266,0.5767 5.57484,0.85438 8.6079,0.85438 2.71267,0 5.2331,-0.25632 7.51857,-0.79031 2.28548,-0.53398 4.33599,-1.32429 6.19428,-2.37091 1.85828,-1.04662 3.26801,-2.30683 4.22919,-3.73792 0.96118,-1.45245 1.43109,-3.07578 1.43109,-4.89134 v -19.73625 c 0,-0.21359 -0.12815,-0.34175 -0.38447,-0.38447 h -10.38075 c -0.2136,0 -0.34175,0.12816 -0.38447,0.38447 v 0.87574 c -1.08934,-0.55534 -2.28548,-0.98254 -3.54569,-1.28157 z m 31.95392,14.09732 c -1.13206,-0.74759 -1.68741,-1.68741 -1.68741,-2.79811 0,-1.06798 0.57671,-1.98644 1.70876,-2.73402 1.19614,-0.79031 2.64859,-1.17478 4.37872,-1.17478 1.7942,0 3.26801,0.38447 4.44279,1.15342 1.15341,0.76894 1.73012,1.6874 1.73012,2.75538 0,1.13206 -0.57671,2.05052 -1.6874,2.81947 -1.19614,0.76894 -2.66995,1.17477 -4.48551,1.17477 -1.75149,0 -3.20394,-0.40583 -4.40007,-1.19613 z m 21.63724,1.92236 c 0.87574,-1.40973 1.32429,-2.99034 1.32429,-4.67775 0,-1.70876 -0.44855,-3.26801 -1.32429,-4.6991 -0.85438,-1.40973 -2.15732,-2.69131 -3.9088,-3.84473 -1.70877,-1.13205 -3.69521,-1.98644 -5.9166,-2.56314 -2.20004,-0.55535 -4.67775,-0.83303 -7.41177,-0.83303 -2.73403,0 -5.19038,0.27768 -7.41177,0.83303 -2.20004,0.5767 -4.18648,1.43109 -5.91661,2.5845 -1.70876,1.13206 -2.99033,2.41364 -3.84472,3.82337 -0.87574,1.43109 -1.30293,2.99034 -1.30293,4.6991 0,1.68741 0.42719,3.26802 1.30293,4.67775 0.85439,1.40973 2.13596,2.6913 3.84472,3.84472 l 0.0214,0.0214 c 1.73013,1.13206 3.69521,1.98644 5.89525,2.54179 2.22139,0.57671 4.67774,0.85438 7.41177,0.85438 2.73402,0 5.21173,-0.27767 7.41177,-0.85438 2.22139,-0.55535 4.20783,-1.40973 5.9166,-2.56315 1.75148,-1.15342 3.05442,-2.43499 3.9088,-3.84472 z m 18.11292,-1.92236 c -1.13205,-0.74759 -1.6874,-1.68741 -1.6874,-2.79811 0,-1.06798 0.57671,-1.98644 1.70876,-2.73402 1.19614,-0.79031 2.64859,-1.17478 4.37871,-1.17478 1.79421,0 3.26802,0.38447 4.4428,1.15342 1.15341,0.76894 1.73012,1.6874 1.73012,2.75538 0,1.13206 -0.57671,2.05052 -1.68741,2.81947 -1.19613,0.76894 -2.66994,1.17477 -4.48551,1.17477 -1.75148,0 -3.20393,-0.40583 -4.40007,-1.19613 z m 21.63725,1.92236 c 0.87574,-1.40973 1.32429,-2.99034 1.32429,-4.67775 0,-1.70876 -0.44855,-3.26801 -1.32429,-4.6991 -0.85438,-1.40973 -2.15732,-2.69131 -3.9088,-3.84473 -1.70877,-1.13205 -3.69521,-1.98644 -5.9166,-2.56314 -2.20004,-0.55535 -4.67775,-0.83303 -7.41178,-0.83303 -2.73402,0 -5.19037,0.27768 -7.41177,0.83303 -2.20003,0.5767 -4.18647,1.43109 -5.9166,2.5845 -1.70876,1.13206 -2.99034,2.41364 -3.84472,3.82337 -0.87574,1.43109 -1.30293,2.99034 -1.30293,4.6991 0,1.68741 0.42719,3.26802 1.30293,4.67775 0.85438,1.40973 2.13596,2.6913 3.84472,3.84472 l 0.0214,0.0214 c 1.73013,1.13206 3.69521,1.98644 5.89524,2.54179 2.2214,0.57671 4.67775,0.85438 7.41177,0.85438 2.73403,0 5.21174,-0.27767 7.41178,-0.85438 2.22139,-0.55535 4.20783,-1.40973 5.9166,-2.56315 1.75148,-1.15342 3.05442,-2.43499 3.9088,-3.84472 z m 27.10528,-1.83692 c -1.19613,0.81166 -2.71266,1.21749 -4.52822,1.21749 -1.81557,0 -3.31074,-0.40583 -4.52823,-1.21749 -1.15342,-0.79031 -1.75149,-1.75149 -1.75149,-2.88355 0,-1.11069 0.59807,-2.05052 1.75149,-2.84082 1.19613,-0.7903 2.71266,-1.19614 4.52823,-1.19614 1.81556,0 3.33209,0.40584 4.52822,1.19614 1.17478,0.7903 1.75149,1.73013 1.75149,2.84082 0,1.13206 -0.57671,2.09324 -1.75149,2.88355 z m -2.00779,-14.22548 c -1.40974,-0.32039 -2.94763,-0.46991 -4.59231,-0.46991 -2.3282,0 -4.44279,0.27768 -6.38651,0.83302 -1.94372,0.55535 -3.71657,1.38838 -5.29718,2.49907 -1.58061,1.1107 -2.77674,2.37092 -3.56705,3.78065 -0.81166,1.43109 -1.21749,3.0117 -1.21749,4.74182 0,1.73013 0.40583,3.31074 1.19613,4.74183 0.79031,1.43109 1.96509,2.6913 3.52433,3.82336 h 0.0214 c 1.58061,1.1107 3.3321,1.92236 5.27582,2.47771 1.94372,0.53399 4.07968,0.81166 6.38651,0.81166 1.75148,0 3.37481,-0.17087 4.84862,-0.53399 1.26022,-0.29903 2.43499,-0.74758 3.50297,-1.30293 v 0.91846 c 0,0.19224 0.12816,0.3204 0.38447,0.36312 h 11.27786 c 0.21359,0 0.32039,-0.12816 0.36311,-0.36312 v -30.05291 c 0,-0.2136 -0.1068,-0.34176 -0.36311,-0.38448 h -11.70505 c -0.19223,0 -0.32039,0.12816 -0.36311,0.38448 v 8.86422 c -1.0039,-0.49127 -2.1146,-0.85438 -3.28937,-1.13206 z"
             id="text2"
             aria-label="cherlygood" /><path
             style="fill:#c0c0c0;stroke-width:0.420794"
             d="m 178.90464,152.83985 c -0.33681,-0.12451 -1.70831,-1.42962 -5.88015,-5.5956 -2.99251,-2.98828 -5.51995,-5.58238 -5.61656,-5.76464 -0.21044,-0.39696 -0.23062,-1.35823 -0.0361,-1.72162 0.0766,-0.14344 0.47985,-0.70901 0.89578,-1.25686 1.40993,-1.85708 2.47643,-4.24559 3.02114,-6.76598 0.35915,-1.66191 0.36181,-4.87011 0.005,-6.52472 -0.49197,-2.28398 -1.30101,-4.21963 -2.55256,-6.10704 -0.90986,-1.37213 -2.84521,-3.35233 -4.08638,-4.18105 -5.38398,-3.59493 -12.58927,-3.00711 -17.20595,1.40363 -2.09549,2.00203 -3.2598,4.33809 -3.58425,7.19143 -0.28881,2.53996 0.47153,5.58542 1.9488,7.80565 1.21522,1.82631 2.9952,3.18836 5.08388,3.89015 1.02323,0.34379 1.11941,0.35543 2.95041,0.35706 1.85969,0.002 1.91161,-0.004 2.97749,-0.37186 1.21447,-0.41815 2.53585,-1.18257 3.42314,-1.98033 0.95747,-0.86083 1.21781,-1.73247 0.79209,-2.65195 -0.38065,-0.82218 -1.06209,-1.28036 -1.90428,-1.28036 -0.59462,0 -0.91984,0.14351 -1.62247,0.71589 -0.78431,0.63887 -1.5883,1.02627 -2.55456,1.23095 -0.96773,0.20498 -1.25303,0.20543 -2.20638,0.003 -1.08324,-0.22952 -1.87496,-0.62615 -2.57912,-1.29213 -3.02877,-2.86446 -2.95721,-7.72893 0.15568,-10.58355 0.82767,-0.75901 2.47196,-1.62017 3.68541,-1.93023 0.98514,-0.25169 3.51098,-0.34567 4.68344,-0.17424 4.08743,0.59765 7.40278,4.01125 8.34972,8.59714 0.33366,1.61586 0.2607,4.10477 -0.16587,5.65944 -0.61424,2.23863 -2.03258,4.53562 -3.9196,6.34781 -2.06891,1.98686 -4.82825,3.3553 -8.00133,3.96819 -1.36298,0.26326 -4.18876,0.26116 -5.5668,-0.004 -4.15643,-0.80013 -7.51123,-2.84009 -10.18375,-6.19248 -2.02538,-2.54063 -3.48528,-5.64822 -4.11213,-8.75324 -0.64313,-3.18573 -0.56831,-6.46329 0.21555,-9.44126 2.14071,-8.13299 8.5636,-13.90439 17.6431,-15.85359 2.61065,-0.56046 3.34842,-0.63336 6.3461,-0.627 2.98624,0.006 4.30994,0.15809 6.72498,0.77102 7.49776,1.90289 13.72445,6.63128 17.59692,13.36267 2.74063,4.76397 4.24087,10.09082 4.42114,15.69831 0.22925,7.12872 -1.74694,13.96597 -5.75423,19.90853 -0.69067,1.02415 -1.21408,1.67923 -1.50303,1.88109 -0.54762,0.38253 -1.28157,0.48429 -1.8847,0.26143 z"
             id="path41" /></g></g></g></g></svg>
